<svg width="100" height="80" viewBox="0 0 100 80" fill="none" xmlns="http://www.w3.org/2000/svg">
<path fill-rule="evenodd" clip-rule="evenodd" d="M20.8333 23.3333C20.8333 19.6514 24.5643 16.6667 29.1667 16.6667H70.8333C75.4357 16.6667 79.1667 19.6514 79.1667 23.3333V43.9363C83.8787 47.2903 87.2231 51.6224 87.4836 51.9643C87.4945 51.8662 87.5 51.767 87.5 51.6667V23.3333C87.5 15.9695 80.0381 10 70.8333 10H29.1667C19.9619 10 12.5 15.9695 12.5 23.3333V51.6667C12.5 51.6667 15.657 44.5949 20.8333 38.5316V23.3333Z" fill="#999999"/>
<path fill-rule="evenodd" clip-rule="evenodd" d="M66.6667 30C68.9679 30 70.8333 28.5076 70.8333 26.6667C70.8333 24.8257 68.9679 23.3333 66.6667 23.3333C64.3655 23.3333 62.5 24.8257 62.5 26.6667C62.5 28.5076 64.3655 30 66.6667 30ZM12.5 51.6667C12.5 51.6667 22.1723 30 35.4167 30C47.9167 30 55.1949 46.5531 55.1949 46.5531C55.1949 46.5531 61.3272 40 68.75 40C78.4897 40 87.5 51.9858 87.5 51.9858V56.6667C87.5 64.0305 80.0381 70 70.8333 70H29.1667C19.9619 70 12.5 64.0305 12.5 56.6667V51.6667ZM20.8333 53.8021C23.9263 47.0541 30.062 36.6667 35.4167 36.6667C40.0415 36.6667 45.8422 45.1107 49.8185 53.4054C50.6236 55.0849 51.4396 56.6667 54.1667 56.6667C56.4853 56.6667 57.2917 55.5989 58.1559 54.4547C58.3081 54.2531 58.4621 54.0492 58.6265 53.8483C61.1931 50.7121 65.673 46.6667 68.75 46.6667C72.0903 46.6667 77.2493 51.7142 79.1667 54.3114V56.6667C79.1667 60.3486 75.4357 63.3333 70.8333 63.3333H29.1667C24.5646 63.3333 20.8338 60.3489 20.8333 56.6673V56.6666V56.6663C20.8333 56.6378 20.8329 54.7687 20.8333 53.8021Z" fill="#999999"/>
<rect x="0.5" y="0.5" width="99" height="79" stroke="#DBDBDB"/>
</svg>
