<svg width="40" height="40" viewBox="0 0 40 40" fill="none" xmlns="http://www.w3.org/2000/svg">
<path fill-rule="evenodd" clip-rule="evenodd" d="M8.33333 11.6667C8.33333 9.82572 9.82572 8.33333 11.6667 8.33333H28.3333C30.1743 8.33333 31.6667 9.82572 31.6667 11.6667V21.9682C33.5515 23.6452 34.8892 25.8112 34.9934 25.9821C34.9978 25.9331 35 25.8835 35 25.8333V11.6667C35 7.98477 32.0152 5 28.3333 5H11.6667C7.98477 5 5 7.98477 5 11.6667V25.8333C5 25.8333 6.26278 22.2974 8.33333 19.2658V11.6667Z" fill="#999999"/>
<path fill-rule="evenodd" clip-rule="evenodd" d="M26.6667 15C27.5871 15 28.3333 14.2538 28.3333 13.3333C28.3333 12.4129 27.5871 11.6667 26.6667 11.6667C25.7462 11.6667 25 12.4129 25 13.3333C25 14.2538 25.7462 15 26.6667 15ZM5 25.8333C5 25.8333 8.86894 15 14.1667 15C19.1667 15 22.078 23.2766 22.078 23.2766C22.078 23.2766 24.5309 20 27.5 20C31.3959 20 35 25.9929 35 25.9929V28.3333C35 32.0152 32.0152 35 28.3333 35H11.6667C7.98477 35 5 32.0152 5 28.3333V25.8333ZM8.33333 26.901C9.57053 23.5271 12.0248 18.3333 14.1667 18.3333C16.0166 18.3333 18.3369 22.5554 19.9274 26.7027C20.2494 27.5424 20.5759 28.3333 21.6667 28.3333C22.5941 28.3333 22.9167 27.7995 23.2624 27.2273C23.3232 27.1266 23.3849 27.0246 23.4506 26.9242C24.4772 25.356 26.2692 23.3333 27.5 23.3333C28.8361 23.3333 30.8997 25.8571 31.6667 27.1557V28.3333C31.6667 30.1743 30.1743 31.6667 28.3333 31.6667H11.6667C9.82583 31.6667 8.33351 30.1745 8.33333 28.3337V28.3333V28.3332C8.33333 28.3189 8.33315 27.3843 8.33333 26.901Z" fill="#999999"/>
</svg>
