<svg width="100" height="80" viewBox="0 0 100 80" fill="none" xmlns="http://www.w3.org/2000/svg">
<path d="M12.5 16.6667C10.2 16.6667 8.33337 18.16 8.33337 20C8.33337 21.84 10.2 23.3334 12.5 23.3334H87.5C89.8 23.3334 91.6667 21.84 91.6667 20C91.6667 18.16 89.8 16.6667 87.5 16.6667H12.5ZM37.5 30C35.2 30 33.3334 31.4934 33.3334 33.3334C33.3334 35.1734 35.2 36.6667 37.5 36.6667H87.5C89.8 36.6667 91.6667 35.1734 91.6667 33.3334C91.6667 31.4934 89.8 30 87.5 30H37.5ZM37.5 43.3334C35.2 43.3334 33.3334 44.8267 33.3334 46.6667C33.3334 48.5067 35.2 50.0001 37.5 50.0001H87.5C89.8 50.0001 91.6667 48.5067 91.6667 46.6667C91.6667 44.8267 89.8 43.3334 87.5 43.3334H37.5ZM12.5 56.6668C10.2 56.6668 8.33337 58.1601 8.33337 60.0001C8.33337 61.8401 10.2 63.3334 12.5 63.3334H87.5C89.8 63.3334 91.6667 61.8401 91.6667 60.0001C91.6667 58.1601 89.8 56.6668 87.5 56.6668H12.5Z" fill="#DBDBDB"/>
<path fill-rule="evenodd" clip-rule="evenodd" d="M9.55376 30.9763C11.1809 29.6746 13.8191 29.6746 15.4463 30.9763L23.7797 37.643C25.4068 38.9447 25.4068 41.0553 23.7797 42.357L15.4463 49.0237C13.8191 50.3254 11.1809 50.3254 9.55376 49.0237C7.92658 47.7219 7.92658 45.6114 9.55376 44.3096L14.9408 40L9.55376 35.6904C7.92658 34.3886 7.92658 32.2781 9.55376 30.9763Z" fill="#999999"/>
</svg>
