<svg width="21" height="21" viewBox="0 0 21 21" fill="none" xmlns="http://www.w3.org/2000/svg">
<path d="M18.6 4.23999C18.8863 4.52609 19.1132 4.86599 19.2677 5.24012C19.4222 5.61425 19.5011 6.01523 19.5 6.41999V16.42C19.5 17.2378 19.1758 18.0222 18.5985 18.6014C18.0212 19.1806 17.2378 19.5073 16.42 19.51H4.08C3.2613 19.5047 2.47793 19.1758 1.90089 18.595C1.32384 18.0142 0.999983 17.2287 1 16.41V4.08999C1 3.27312 1.3245 2.48971 1.90211 1.9121C2.47972 1.33449 3.26313 1.00999 4.08 1.00999H14.08C14.4848 1.00889 14.8857 1.08784 15.2599 1.2423C15.634 1.39676 15.9739 1.62367 16.26 1.90999L18.6 4.23999Z" stroke="black" stroke-width="1.5" stroke-linecap="round" stroke-linejoin="round"/>
<path d="M6.13998 12.29H14.36C14.9037 12.29 15.4251 12.506 15.8095 12.8904C16.194 13.2749 16.41 13.7963 16.41 14.34V19.48H4.07998V14.35C4.07866 14.0791 4.13104 13.8106 4.23409 13.5601C4.33715 13.3096 4.48883 13.082 4.68039 12.8904C4.87194 12.6989 5.09956 12.5472 5.35009 12.4441C5.60062 12.3411 5.86909 12.2887 6.13998 12.29V12.29Z" stroke="black" stroke-width="1.5" stroke-linecap="round" stroke-linejoin="round"/>
<path d="M4.08002 1V5.42C4.08002 5.88148 4.26334 6.32405 4.58965 6.65037C4.91596 6.97668 5.35854 7.16 5.82002 7.16H12.62C13.0815 7.16 13.5241 6.97668 13.8504 6.65037C14.1767 6.32405 14.36 5.88148 14.36 5.42V1.1" stroke="black" stroke-width="1.5" stroke-linecap="round" stroke-linejoin="round"/>
<path d="M11.28 3.56V4.59" stroke="black" stroke-width="1.5" stroke-linecap="round" stroke-linejoin="round"/>
</svg>
