<svg width="100" height="80" viewBox="0 0 100 80" fill="none" xmlns="http://www.w3.org/2000/svg">
<path d="M12.4999 43.3333C10.1999 43.3333 8.33325 44.8267 8.33325 46.6667C8.33325 48.5067 10.1999 50 12.4999 50H87.4999C89.7999 50 91.6665 48.5067 91.6665 46.6667C91.6665 44.8267 89.7999 43.3333 87.4999 43.3333H12.4999ZM29.1666 56.6667C26.8666 56.6667 24.9999 58.16 24.9999 60C24.9999 61.84 26.8666 63.3334 29.1666 63.3334H70.8332C73.1332 63.3334 74.9999 61.84 74.9999 60C74.9999 58.16 73.1332 56.6667 70.8332 56.6667H29.1666Z" fill="#DBDBDB" fill-opacity="0.4"/>
<path d="M12.4999 16.6667C10.1999 16.6667 8.33325 18.16 8.33325 20C8.33325 21.84 10.1999 23.3334 12.4999 23.3334H87.4999C89.7999 23.3334 91.6665 21.84 91.6665 20C91.6665 18.16 89.7999 16.6667 87.4999 16.6667H12.4999ZM29.1666 30C26.8666 30 24.9999 31.4934 24.9999 33.3334C24.9999 35.1734 26.8666 36.6667 29.1666 36.6667H70.8332C73.1332 36.6667 74.9999 35.1734 74.9999 33.3334C74.9999 31.4934 73.1332 30 70.8332 30H29.1666Z" fill="#999999"/>
</svg>
